<svg width="150" height="146" viewBox="0 0 150 146" fill="none" xmlns="http://www.w3.org/2000/svg">
<g clip-path="url(#clip0_3335_10897)">
<path d="M107.263 9.22656H26.7949V41.1606H69.2623C78.7321 27.341 91.8649 16.2282 107.263 9.22656Z" fill="#FF8526"/>
<path d="M93.7297 73.0517C98.6399 58.9197 109.173 47.4181 122.652 41.2274V9.1741C92.151 17.5565 68.3537 42.1192 61.0564 73.0517H93.7297Z" fill="#ED2525"/>
<path d="M88.7145 77.845L83.5897 100.345H76.0277L70.9029 77.845H77.1199L79.8099 93.0453L82.4999 77.845H88.7145ZM116.738 77.8832C114.594 77.8832 113.392 78.3649 112.152 79.1566V77.8879H105.35V100.378H112.149V85.0636C112.149 84.1288 112.915 83.3657 113.85 83.3657H114.145C115.08 83.3657 115.843 84.1288 115.843 85.0636V100.376H122.64V84.9062C122.64 80.1105 120.467 77.8832 116.738 77.8832ZM26.7805 100.376H39.4435V95.5398H33.5794V90.9205H39.4435V86.7019H33.5794V82.884H39.4435V77.876H26.7805V100.376ZM56.4276 100.376H69.0905V95.5398H63.2265V90.9205H69.0905V86.7019H63.2265V82.884H69.0905V77.876H56.4276V100.376ZM90.5269 100.376H103.19V95.5398H97.3258V90.9205H103.19V86.7019H97.3258V82.884H103.19V77.876H90.5269V100.376ZM48.4029 77.8784H41.604V100.378H54.267V95.5445H48.4029V77.8784Z" fill="#008060"/>
<path d="M58.7884 105.021L58.7288 136.905H90.6556L90.6938 105.021H58.7884Z" fill="#ED2525"/>
</g>
<defs>
<clipPath id="clip0_3335_10897">
<rect width="150" height="145.946" fill="white"/>
</clipPath>
</defs>
</svg>
