<svg width="111" height="146" viewBox="0 0 111 146" fill="none" xmlns="http://www.w3.org/2000/svg">
<path fill-rule="evenodd" clip-rule="evenodd" d="M54.8284 135.155L49.5518 129.038C22.8623 98.0724 6.93831 70.1143 6.93831 54.2491C6.93831 28.1142 28.4144 6.86501 54.8284 6.86501C81.2347 6.86501 102.711 28.1142 102.711 54.2491C102.711 70.1143 86.7869 98.0724 60.0972 129.031L54.8284 135.155ZM54.8284 0C24.5475 0 0 24.2881 0 54.2491C0 84.0465 43.1731 132.615 52.8988 143.174C53.9309 144.296 55.7184 144.296 56.7499 143.174C66.4762 132.615 109.649 84.0465 109.649 54.2491C109.649 24.2881 85.1016 0 54.8284 0Z" fill="#F57153"/>
<path fill-rule="evenodd" clip-rule="evenodd" d="M94.5208 62.2037C90.3917 77.0308 76.3235 99.401 56.0355 123.174C55.4071 123.91 54.2486 123.91 53.6199 123.174C51.2509 120.401 48.97 117.646 46.7874 114.927C40.7138 107.384 35.3407 100.065 30.7852 93.1742C30.1548 92.2207 30.7313 90.944 31.8719 90.7825C43.1931 89.1783 54.1107 84.0635 62.8293 75.4441C71.2746 67.0879 81.7848 62.0303 92.7339 60.2655C93.8626 60.0835 94.8244 61.1129 94.5208 62.2037Z" fill="#F57153"/>
</svg>
